{"title":"The.Green.2011.DVDRip.Xvid-QaFoNE.avi","uid":6846107,"size":738180394,"categoryP":"video","categoryS":"movies","magnet":"?xt=urn:btih:261268d9230abc5d41ed365e73fbfa4e8f63c56e&amp;dn=The.Green.2011.DVDRip.Xvid-QaFoNE.avi&amp;tr=udp%3A%2F%2Ftracker.openbittorrent.com%3A80&amp;tr=udp%3A%2F%2Fopen.demonii.com%3A1337&amp;tr=udp%3A%2F%2Ftracker.coppersurfer.tk%3A6969&amp;tr=udp%3A%2F%2Fexodus.desync.com%3A6969","seeders":0,"leechers":1,"uploader":"pessoa20","files":-1,"time":1322350622,"description":"The Green (2011)\n  &lt;a href=&quot;\nhttp://www.imdb.com/title/tt1720263/&quot; rel=&quot;nofollow&quot; target=&quot;_NEW&quot;&gt;\nhttp://www.imdb.com/title/tt1720263/&lt;/a&gt;\n\nDirector: Steven Williford\n\nWriter: Paul Marcarelli\n\nCast:\n\nJason Butler Harner\nCheyenne Jackson\nJulia Ormond\n\nSynopsys:\n\nMichael Gavin and his partner Daniel trade the rat race of New York City for the idyllic charm of the Connecticut shoreline, with hopes of a simpler life and time for Michael to finish his first novel. All that changes when one of Michael's high school students accuses him of 'inappropriate conduct', and the town rushes to judgment.\n\nScreenshots:\n &lt;a href=&quot;\nhttp://img62.imageshack.us/img62/9329/screen1dl.jpg&quot; rel=&quot;nofollow&quot; target=&quot;_NEW&quot;&gt;\nhttp://img62.imageshack.us/img62/9329/screen1dl.jpg&lt;/a&gt;\n &lt;a href=&quot;\nhttp://img163.imageshack.us/img163/936/screen2qq.jpg&quot; rel=&quot;nofollow&quot; target=&quot;_NEW&quot;&gt;\nhttp://img163.imageshack.us/img163/936/screen2qq.jpg&lt;/a&gt;\n &lt;a href=&quot;\nhttp://img855.imageshack.us/img855/2945/screen3dz.jpg&quot; rel=&quot;nofollow&quot; target=&quot;_NEW&quot;&gt;\nhttp://img855.imageshack.us/img855/2945/screen3dz.jpg&lt;/a&gt;\n &lt;a href=&quot;\nhttp://img94.imageshack.us/img94/4663/screen4w.jpg&quot; rel=&quot;nofollow&quot; target=&quot;_NEW&quot;&gt;\nhttp://img94.imageshack.us/img94/4663/screen4w.jpg&lt;/a&gt;\n &lt;a href=&quot;\nhttp://img38.imageshack.us/img38/3135/screen5q.jpg&quot; rel=&quot;nofollow&quot; target=&quot;_NEW&quot;&gt;\nhttp://img38.imageshack.us/img38/3135/screen5q.jpg&lt;/a&gt;\n\nTechnical Specs:\n\nGeneral\nComplete name                    : The.Green.2011.DVDRip.Xvid-QaFoNE.avi\nFormat                           : AVI\nFormat/Info                      : Audio Video Interleave\nFormat profile                   : OpenDML\nFormat settings                  : rec\nFile size                        : 704 MiB\nDuration                         : 1h 31mn\nOverall bit rate                 : 1 077 Kbps\nWriting application              : AVI-Mux GUI 1.17.8, Aug 30 2008  12:36:58\n\nVideo\nID                               : 0\nFormat                           : MPEG-4 Visual\nFormat profile                   : Advanced Simple@L5\nFormat settings, BVOP            : 2\nFormat settings, QPel            : No\nFormat settings, GMC             : No warppoints\nFormat settings, Matrix          : Default (H.263)\nMuxing mode                      : Packed bitstream\nCodec ID                         : XVID\nCodec ID/Hint                    : XviD\nDuration                         : 1h 31mn\nBit rate                         : 961 Kbps\nWidth                            : 640 pixels\nHeight                           : 256 pixels\nDisplay aspect ratio             : 2.500\nFrame rate                       : 23.976 fps\nColor space                      : YUV\nChroma subsampling               : 4:2:0\nBit depth                        : 8 bits\nScan type                        : Progressive\nCompression mode                 : Lossy\nBits/(Pixel*Frame)               : 0.245\nStream size                      : 628 MiB (89%)\nWriting library                  : XviD 63\n\nAudio\nID                               : 1\nFormat                           : MPEG Audio\nFormat version                   : Version 1\nFormat profile                   : Layer 3\nMode                             : Joint stereo\nMode extension                   : MS Stereo\nCodec ID                         : 55\nCodec ID/Hint                    : MP3\nDuration                         : 1h 31mn\nBit rate mode                    : Variable\nBit rate                         : 108 Kbps\nNominal bit rate                 : 128 Kbps\nChannel(s)                       : 2 channels\nSampling rate                    : 48.0 KHz\nCompression mode                 : Lossy\nStream size                      : 70.5 MiB (10%)\nAlignment                        : Aligned on interleaves\nInterleave, duration             : 24 ms (0.58 video frame)\nInterleave, preload duration     : 234 ms\nTitle                            : TG2011-qafone\nWriting library                  : LAME3.98r\nEncoding settings                : -m j -V 4 -q 2 -lowpass 17 --abr 128","torrent":{"xt":"urn:btih:261268d9230abc5d41ed365e73fbfa4e8f63c56e","amp;dn":"The.Green.2011.DVDRip.Xvid-QaFoNE.avi","amp;tr":["udp%3A%2F%2Ftracker.openbittorrent.com%3A80","udp%3A%2F%2Fopen.demonii.com%3A1337","udp%3A%2F%2Ftracker.coppersurfer.tk%3A6969","udp%3A%2F%2Fexodus.desync.com%3A6969"],"infoHash":"261268d9230abc5d41ed365e73fbfa4e8f63c56e","infoHashBuffer":{"type":"Buffer","data":[38,18,104,217,35,10,188,93,65,237,54,94,115,251,250,78,143,99,197,110]},"announce":[],"urlList":[]}}